PathFileType	4	(X/Y/Z)	c:\Git\powerlifing_model_clean\simulations\HC835B\Session1\HC835B_OGR_0003\marker_experimental.trc
DataRate	CameraRate	NumFrames	NumMarkers	Units	OrigDataRate	OrigDataStartFrame	OrigNumFrames
240.000000	240.000000	4	38	mm	240.000000	80	215
Frame#	Time	RPSI			LPSI			RASI			LASI			RTH1			RTH2			RTH3			RTH4			RSK1			RSK2			RSK3			RSK4			RCAL1			RCAL2			RCAL3			RST			RPT			RTN			RFMB			RSMB			RVMB			RFMH			RSMH			RVMH			RPM			LTH1			LTH2			LTH3			LTH4			LSK1			LSK2			LSK3			LSK4			LCAL1			LCAL2			LCAL3			LFMH			LVMH			
		X1	Y1	Z1	X2	Y2	Z2	X3	Y3	Z3	X4	Y4	Z4	X5	Y5	Z5	X6	Y6	Z6	X7	Y7	Z7	X8	Y8	Z8	X9	Y9	Z9	X10	Y10	Z10	X11	Y11	Z11	X12	Y12	Z12	X13	Y13	Z13	X14	Y14	Z14	X15	Y15	Z15	X16	Y16	Z16	X17	Y17	Z17	X18	Y18	Z18	X19	Y19	Z19	X20	Y20	Z20	X21	Y21	Z21	X22	Y22	Z22	X23	Y23	Z23	X24	Y24	Z24	X25	Y25	Z25	X26	Y26	Z26	X27	Y27	Z27	X28	Y28	Z28	X29	Y29	Z29	X30	Y30	Z30	X31	Y31	Z31	X32	Y32	Z32	X33	Y33	Z33	X34	Y34	Z34	X35	Y35	Z35	X36	Y36	Z36	X37	Y37	Z37	X38	Y38	Z38	

81	0.3333333333333333	488.8887329101564	1207.162353515625	-825.7988281250002	378.8790283203126	1207.35400390625	-819.3081665039065	538.9017333984376	1102.49462890625	-1013.268188476563	306.4191284179688	1134.65283203125	-1008.099365234375	614.4991455078126	866.446960449219	-825.1383056640627	604.7683715820314	831.2475585937502	-874.128112792969	603.2566528320314	783.6744384765627	-812.1821289062502	582.3001098632814	750.9817504882814	-856.3757934570315	567.5040283203126	439.3631591796876	-511.4114074707032	566.7165527343751	393.3265686035157	-551.9572143554689	563.2149047851564	384.1634216308595	-491.8153381347657	549.8071289062501	340.5226135253907	-530.8137207031251	503.481903076172	323.1994628906251	-379.1378479003907	461.611297607422	305.8851928710938	-359.6528320312501	523.2539672851564	298.7141113281251	-341.9149169921876	452.1209411621095	253.4276885986329	-408.1446533203126	547.8602294921876	247.3567810058594	-372.9372863769532	471.1870422363282	212.6062469482422	-449.0898437500001	467.6047363281251	175.6082305908203	-444.0892028808595	520.3849487304689	168.6264038085938	-457.7315063476564	548.1916503906251	194.7040710449219	-368.5413208007813	453.5477600097657	113.2840423583985	-440.9932250976564	507.6987609863282	100.9040145874024	-448.2722167968751	558.0203857421876	117.8247680664063	-390.497283935547	494.1568603515626	48.45697402954103	-470.0453491210939	238.4543609619141	866.9553222656252	-1013.874938964844	241.2762298583985	879.0683593750002	-1073.618896484375	245.0603179931641	798.2995605468752	-1064.339721679688	263.8970642089844	811.2888793945315	-1122.020751953125	279.7940063476563	384.0492553710939	-972.742614746094	277.8828430175782	351.9173583984376	-1017.098205566406	285.7505798339844	326.3135375976563	-975.1828613281252	296.4859008789063	298.1763610839844	-1022.475708007813	343.5276794433594	195.9220123291016	-879.3057861328127	315.5373229980469	156.6724700927735	-874.2095947265627	374.1321411132813	159.5747680664063	-876.7861938476565	390.7280273437501	125.7111434936524	-1094.349243164063	282.8840332031251	97.28098297119143	-1055.827880859375	
82	0.3375	488.7466125488282	1209.191284179688	-841.0329589843752	378.7364501953126	1209.267700195313	-834.584655761719	538.6350708007814	1104.248413085938	-1028.092163085938	306.2920227050782	1136.935668945313	-1023.244873046875	614.1335449218751	868.1047973632815	-839.1472778320315	605.0986938476564	832.809265136719	-888.2080078125002	602.7272338867189	785.0845336914065	-826.1901855468752	582.9259033203126	752.4752807617189	-870.6270751953127	568.7100219726564	444.3836059570314	-522.6502685546876	567.2065429687501	397.442108154297	-562.1088256835939	564.5001831054689	389.7573547363282	-501.6462707519532	550.6198730468751	345.5272827148438	-539.4743652343751	504.3114013671876	331.4255065917969	-387.6456604003907	462.558074951172	314.3445434570313	-367.4439697265626	524.0156860351564	307.7971496582032	-349.5500183105469	453.363739013672	260.7414245605469	-414.6831054687501	549.0263671875001	256.1020507812501	-379.3957214355469	472.0596008300782	218.4995880126954	-452.4636230468751	469.4065246582032	182.2446746826172	-448.9273681640626	522.2876586914064	175.563217163086	-462.7564697265626	549.9876708984376	203.7303619384766	-373.9652099609376	455.9060058593751	119.9104690551758	-444.4924316406251	510.2588195800782	107.8409881591797	-451.7843322753907	560.8355102539064	126.3120803833008	-393.9517517089845	496.9251403808595	54.63281631469728	-472.096405029297	239.7027435302735	866.6521606445315	-1026.474853515625	242.244613647461	878.3306884765627	-1086.344116210938	246.4754180908204	797.6262207031252	-1076.581787109375	265.0840759277344	810.278503417969	-1134.36376953125	279.6146545410157	377.8199157714844	-994.7241821289065	278.1262817382813	347.7044677734376	-1040.36181640625	284.7784729003907	321.0399780273438	-998.925476074219	296.8281555175782	294.1865539550782	-1047.679321289063	342.9134216308594	184.9359893798828	-909.1649169921877	315.2861938476563	145.96923828125	-905.3460693359377	374.0372619628907	149.185775756836	-907.5136718750002	391.691375732422	124.84521484375	-1126.292846679688	283.8004455566407	94.70825958251955	-1089.559936523438	
83	0.3416666666666667	488.5764465332032	1211.060913085938	-856.265808105469	378.6261596679688	1210.989624023438	-849.8444824218752	538.5036010742189	1105.85791015625	-1042.894775390625	306.0885314941407	1138.91845703125	-1038.248901367188	613.7373046875001	869.3645019531252	-853.5998535156252	605.1849365234376	834.0344848632815	-902.7531738281252	601.5255126953126	786.188659667969	-840.5435791015627	583.2100219726564	753.5764770507814	-885.2979736328127	569.7675170898439	449.677459716797	-533.8027954101564	567.2380981445314	401.4644165039064	-572.0966796875001	565.7064819335939	395.7066650390626	-511.367645263672	551.2556152343751	350.3902282714844	-548.2107543945314	505.1740722656251	339.8186950683594	-395.6241149902345	463.4961853027345	322.8606262207032	-375.0794372558594	525.2947998046876	317.3320617675782	-357.0696411132813	454.7339172363282	268.2518920898438	-421.2454223632814	550.3315429687501	264.9034118652344	-385.9586181640626	473.1462402343751	225.7227020263672	-458.3645324707032	471.2463989257814	189.2340240478516	-454.1286010742189	524.0990600585939	182.598129272461	-467.6022033691407	551.7026977539064	212.6901245117188	-379.5557250976563	457.5098266601564	126.6469421386719	-447.5450439453126	512.7861328125001	115.0645828247071	-455.7050170898439	563.2357788085939	134.926986694336	-397.9555969238282	499.8209228515626	61.37975692749025	-474.8894958496095	240.8030700683594	865.881774902344	-1038.920654296875	243.2158966064454	877.2803344726565	-1098.8525390625	247.8260345458985	796.6760864257815	-1088.546264648438	266.3495788574219	809.1314697265627	-1146.48828125	279.4136657714844	371.8280029296876	-1016.823364257813	278.3747253417969	343.1554260253907	-1063.625732421875	286.0347290039063	314.5088500976563	-1023.656555175781	297.2596130371094	290.2299499511719	-1072.632690429688	342.7777709960938	175.118392944336	-938.598327636719	315.2808227539063	135.9740905761719	-936.5609130859377	374.0175781250001	139.4137725830078	-938.352966308594	392.7634887695314	124.5574188232422	-1157.923828125	284.7282409667969	92.6814651489258	-1123.067749023438	
84	0.3458333333333333	488.555877685547	1212.71875	-871.4886474609377	378.6231384277344	1212.48876953125	-865.0740356445315	538.4381103515626	1107.418334960938	-1057.704956054688	305.9771118164063	1140.42724609375	-1053.046630859375	613.3059692382814	870.2307128906252	-868.4780883789065	604.9906005859376	834.9077148437502	-917.632019042969	601.2047729492189	787.3375244140627	-855.3568115234377	583.0329589843751	754.4126586914064	-900.2690429687502	570.5861206054689	455.1336364746095	-544.9216918945314	567.8634643554689	406.1091918945314	-582.0437011718751	566.5473022460939	401.7508239746095	-521.2040405273439	551.8085327148439	355.5423583984376	-556.8801269531251	505.9995422363282	348.1895141601563	-403.4898986816407	464.5133361816407	331.3787536621094	-382.6994018554688	526.2930297851564	326.4498901367188	-364.6664733886719	455.7740783691407	275.9827575683594	-428.0077514648439	551.7255859375001	273.7636718750001	-392.695281982422	474.9297790527345	232.7307434082032	-464.1182861328126	472.4310607910157	196.4588012695313	-458.994354248047	526.0580444335939	190.1212005615235	-473.2221984863282	553.4257202148439	221.6754455566407	-385.4403076171876	460.1691894531251	134.0758209228516	-452.4442443847657	514.9924926757814	122.5835571289063	-459.9024658203126	565.5144042968751	143.81689453125	-402.6347045898439	502.4780883789064	68.59099578857423	-478.3331298828126	241.7430572509766	864.8927001953127	-1051.194213867188	244.1244506835938	875.772155761719	-1111.171875	248.9700775146485	795.271667480469	-1100.244750976563	267.5654296875001	807.2332153320315	-1158.210083007813	279.1715087890626	366.1927795410157	-1038.928955078125	278.4525756835938	339.7385864257813	-1086.416137695313	285.5375976562501	309.4310302734376	-1047.546875	297.7686767578126	286.9021301269532	-1097.760375976563	342.7958068847657	166.0757904052735	-968.010681152344	315.2731933593751	126.6773147583008	-967.924499511719	374.0702209472657	130.4367828369141	-969.315612792969	393.9096069335939	124.780143737793	-1189.15087890625	285.6573181152344	91.24535369873048	-1156.325317382813	
